<svg width="21" height="16" viewBox="0 0 21 16" fill="none" xmlns="http://www.w3.org/2000/svg">
<path d="M19.2686 0C18.5458 0 13.4863 1 13.4863 5.5V9C13.4863 10.1031 14.7828 11 16.3774 11H17.823V15C17.823 15.5531 18.469 16 19.2686 16C20.0682 16 20.7142 15.5531 20.7142 15V11V7.5V1C20.7142 0.446875 20.0682 0 19.2686 0ZM3.36723 0.5C3.36723 0.24375 3.09167 0.03125 2.72124 0.003125C2.35081 -0.025 2.02104 0.14375 1.93972 0.390625L0.57094 4.65C0.507696 4.84688 0.476074 5.04687 0.476074 5.24687C0.476074 6.68125 2.06169 7.85938 4.09002 7.9875V15C4.09002 15.5531 4.73601 16 5.5356 16C6.33518 16 6.98118 15.5531 6.98118 15V7.9875C9.0095 7.85938 10.5951 6.68125 10.5951 5.24687C10.5951 5.04687 10.5635 4.84688 10.5003 4.65L9.13147 0.390625C9.05016 0.140625 8.71135 -0.025 8.34544 0.003125C7.97953 0.03125 7.70397 0.24375 7.70397 0.5V4.69375C7.70397 4.8625 7.5052 5 7.26126 5C7.03087 5 6.84114 4.87812 6.81855 4.71875L6.25387 0.45625C6.22225 0.196875 5.91055 0 5.5356 0C5.16065 0 4.84895 0.196875 4.81733 0.45625L4.25716 4.71875C4.23458 4.87812 4.04485 5 3.81446 5C3.57052 5 3.37175 4.8625 3.37175 4.69375V0.5H3.36723ZM5.54915 5.25H5.5356H5.52205L5.5356 5.22813L5.54915 5.25Z" fill="white"/>
</svg>
